# xmcd
#
# Track frame offsets:
# 150
# 15315
# 26610
# 40280
# 56457
# 66232
# 82832
# 96632
# 108892
# 120922
# 135632
# 148167
# 161625
# 178525
# 194025
# 207982
# 222335
# 234812
# 246647
# 263372
# 281390
#
# Disc length: 3887 seconds
#
#
# Revision: 2
# Processed by: cddbd v1.5.1PL0 Copyright (c) Steve Scherf et al.
# Submitted via: FreeRIP 2.80 
#
DISCID=280f2d15
DTITLE=David Wilcox - Over 60 Minutes With...
DYEAR=1987
DGENRE=Rock
TTITLE0=The Grind
TTITLE1=Downtown Come Uptown
TTITLE2=Preachin' The Blues
TTITLE3=Riverboat Fantasy
TTITLE4=Too Cool
TTITLE5=Bad Apple
TTITLE6=Freeze To Me
TTITLE7=Mow'em Down
TTITLE8=Shake It Baby
TTITLE9=When You Mistreat Her
TTITLE10=My Eyes Keep Me In Trouble
TTITLE11=Brain Fever
TTITLE12=Somethin's Shakin'
TTITLE13=Do The Bearcat
TTITLE14=Hot, Hot Papa
TTITLE15=Cheap Beer Joint
TTITLE16=Bad Reputation
TTITLE17=Boogie Ride
TTITLE18=Blood Money
TTITLE19=That Hypnotizin' Boogie
TTITLE20=Play On Your Harp
EXTD=Compilation 1987
EXTT0=
EXTT1=
EXTT2=
EXTT3=
EXTT4=
EXTT5=
EXTT6=
EXTT7=
EXTT8=
EXTT9=
EXTT10=
EXTT11=
EXTT12=
EXTT13=
EXTT14=
EXTT15=
EXTT16=
EXTT17=
EXTT18=
EXTT19=
EXTT20=
PLAYORDER=
